<?xml version="1.0" encoding="UTF-8"?>
<svg id="Ebene_1" data-name="Ebene 1" xmlns="http://www.w3.org/2000/svg" viewBox="0 0 841.89 595.28">
  <defs>
    <style>
      .cls-1 {
        fill: #0088ce;
      }

      .cls-2 {
        fill: #fff;
      }

      .cls-3 {
        fill: #324c6b;
      }

      .cls-4 {
        fill: #a1c3e8;
      }

      .cls-5 {
        fill: #3aada1;
      }
    </style>
  </defs>
  <g>
    <path class="cls-2" d="m346.01,344.72c0,6.38-1.04,12.24-3.13,17.58-2.08,5.34-4.92,9.96-8.5,13.87-3.58,3.91-7.81,6.97-12.7,9.18-4.88,2.22-10.13,3.32-15.72,3.32-4.95,0-9.25-.81-12.89-2.44-3.65-1.63-6.71-3.42-9.18-5.37-2.87-2.34-5.27-4.95-7.23-7.81h-.98l-2.93,14.65h-5.86v-123.05h8.79v51.76h.98c1.95-2.86,4.36-5.47,7.23-7.81,2.47-1.95,5.53-3.74,9.18-5.37,3.64-1.63,7.94-2.44,12.89-2.44,5.6,0,10.84,1.11,15.72,3.32,4.88,2.22,9.11,5.27,12.7,9.18,3.58,3.91,6.41,8.53,8.5,13.87,2.08,5.34,3.13,11.2,3.13,17.58Zm-40.04-35.16c-4.17,0-8.14.88-11.91,2.64-3.78,1.76-7.1,4.2-9.96,7.32-2.87,3.13-5.15,6.84-6.84,11.13-1.69,4.3-2.54,8.98-2.54,14.06s.85,9.77,2.54,14.06c1.69,4.3,3.97,8.01,6.84,11.13,2.86,3.13,6.18,5.57,9.96,7.32,3.77,1.76,7.75,2.64,11.91,2.64s8.14-.88,11.91-2.64c3.78-1.76,7.1-4.2,9.96-7.32,2.86-3.12,5.14-6.84,6.84-11.13,1.69-4.3,2.54-8.98,2.54-14.06s-.85-9.77-2.54-14.06c-1.69-4.3-3.97-8.01-6.84-11.13-2.87-3.13-6.19-5.57-9.96-7.32-3.78-1.76-7.75-2.64-11.91-2.64Z"/>
    <path class="cls-2" d="m399.72,387.69h-9.77v-123.05h9.77v123.05Z"/>
    <path class="cls-2" d="m439.76,264.64h85.94v8.79h-38.09v114.26h-9.77v-114.26h-38.09v-8.79Z"/>
    <path class="cls-2" d="m641.91,378.9v8.79h-76.17v-123.05h74.22v8.79h-64.46v45.9h59.57v8.79h-59.57v50.78h66.41Z"/>
    <path class="cls-2" d="m792.31,264.64h8.79v123.05h-9.77v-97.66l-43.95,97.66h-5.86l-43.95-97.66v97.66h-9.77v-123.05h8.79l47.85,106.45,47.85-106.45Z"/>
  </g>
  <g>
    <path class="cls-3" d="m32.79,326.45h0m29.22-61.81l-29.22,61.81h62.09l-32.86-61.81"/>
    <polyline class="cls-5" points="156.94 203.44 94.85 203.44 62.01 264.64 124.1 264.64 156.89 203.44 156.94 203.44"/>
    <polyline class="cls-1" points="94.88 326.45 32.79 326.45 62.01 387.69 94.88 326.45"/>
    <polyline class="cls-1" points="219.06 326.45 156.97 326.45 186.19 387.69 219.06 326.45"/>
    <polyline class="cls-4" points="186.19 264.64 156.97 326.45 219.06 326.45 186.19 264.64"/>
    <polyline class="cls-4" points="124.1 264.64 94.88 326.45 156.97 326.45 124.1 264.64"/>
    <polyline class="cls-5" points="156.97 326.45 186.19 264.64 124.1 264.64 156.97 326.45"/>
    <polygon class="cls-4" points="124.1 387.69 94.88 326.45 62.01 387.69 124.1 387.69"/>
  </g>
</svg>